<svg width="6645" height="6645" viewBox="0 0 6645 6645" fill="none" xmlns="http://www.w3.org/2000/svg">
<path fill-rule="evenodd" clip-rule="evenodd" d="M3323 6645C5157.69 6645 6645 5157.69 6645 3323C6645 1488.31 5157.69 1 3323 1C1488.31 1 1 1488.31 1 3323C1 5157.69 1488.31 6645 3323 6645ZM5870.53 3531.34C5870.53 3531.34 4747.65 4514.07 4720.31 4541.4C4714.73 4546.98 4709.15 4552.28 4703.69 4557.46C4655.62 4603.06 4616.56 4640.12 4665.65 4787.36C4720.31 4951.33 4774.98 5171.05 4774.98 5171.05C4774.98 5171.05 3797.52 4951.33 3688.18 4924C3590.87 4914.16 3487 4950.23 3487 5060.64V5947.98H3159V5060.64C3159 4951.33 3054.03 4914.16 2958.91 4924C2848.48 4951.33 1871.02 5171.05 1871.02 5171.05C1871.02 5171.05 1925.68 4951.33 1981.45 4787.36C2029.86 4639.19 1990.78 4602.6 1941.65 4556.59C1936.41 4551.68 1931.06 4546.67 1925.68 4541.4C1897.26 4514.07 775.468 3531.34 775.468 3531.34L966.807 3448.27C1076.14 3394.7 1047.72 3323.65 1021.47 3258.06C994.141 3174.98 801.709 2522.38 801.709 2522.38C801.709 2522.38 1322.15 2631.7 1432.58 2659.02C1514.58 2685.26 1541.91 2631.7 1569.25 2577.04C1596.58 2522.38 1733.25 2223.96 1733.25 2223.96C1733.25 2223.96 2308.36 2877.65 2335.69 2904.98C2446.12 2986.96 2555.46 2904.98 2528.13 2795.67C2528.13 2686.35 2226.36 1378.96 2226.36 1378.96C2226.36 1378.96 2555.46 1569.17 2664.8 1623.83C2747.89 1678.48 2802.56 1678.48 2857.23 1569.17C2911.9 1487.18 3321.91 696.848 3321.91 696.848C3321.91 696.848 3733.01 1487.18 3788.77 1569.17C3843.44 1678.48 3899.2 1678.48 3981.2 1623.83C4090.54 1569.17 4419.64 1378.96 4419.64 1378.96C4419.64 1378.96 4117.87 2686.35 4117.87 2795.67C4090.54 2904.98 4200.97 2986.96 4310.3 2904.98C4337.64 2878.74 4912.75 2223.96 4912.75 2223.96C4912.75 2223.96 5049.42 2523.48 5076.75 2578.13C5104.08 2632.79 5131.42 2686.35 5213.42 2660.12C5322.76 2632.79 5844.29 2523.48 5844.29 2523.48C5844.29 2523.48 5650.77 3176.08 5624.52 3259.15C5598.28 3323.65 5569.86 3395.8 5679.19 3449.36L5870.53 3531.34Z" fill="black"/>
</svg>
