<svg width="152" height="33" viewBox="0 0 152 33" fill="none" xmlns="http://www.w3.org/2000/svg">
<path d="M132.304 14.0482C131.941 9.77919 129.537 7.11712 125.352 6.34701C124.741 6.23207 124.117 6.18149 123.566 6.13322C123.325 6.11253 123.097 6.09299 122.885 6.06885H122.86H122.835C122.567 6.08724 122.316 6.10218 122.077 6.11713C121.57 6.14816 121.131 6.17459 120.684 6.22172C116.843 6.62632 114.238 8.75046 113.35 12.1987C112.755 14.4778 112.748 16.8713 113.33 19.1539C114.094 22.1964 116.029 24.1344 119.082 24.9114C120.246 25.208 121.442 25.3574 122.643 25.3562C123.683 25.3546 124.719 25.2487 125.737 25.0401C129.278 24.3252 131.431 22.139 132.137 18.5413C132.311 17.6365 132.396 16.7167 132.39 15.7953C132.382 15.2436 132.359 14.6642 132.304 14.0482ZM129.052 15.7355C129.052 16.5088 128.967 17.2797 128.799 18.0344C128.205 20.7045 126.492 22.0378 123.413 22.2298C122.496 22.2834 121.575 22.2255 120.671 22.0573C118.397 21.6413 116.954 20.2275 116.5 17.9711C116.224 16.6178 116.202 15.2244 116.437 13.8631C116.93 11.0252 118.57 9.52057 121.452 9.2654C121.721 9.24126 121.999 9.23092 122.27 9.22057L122.646 9.20563L122.773 9.21138C123.401 9.22485 124.027 9.28439 124.646 9.38954C126.914 9.82632 128.263 11.1033 128.771 13.2976C128.957 14.0968 129.052 14.9148 129.052 15.7355Z" fill="#171717"/>
<path d="M64.7323 8.1781C64.9465 7.35741 64.3507 7.35856 63.748 7.34132C61.7278 7.28615 59.6882 7.59074 57.6875 7.1781C55.5331 6.73073 53.3173 6.66383 51.14 6.9804C47.2441 7.54477 45.0222 9.65741 44.4046 13.3126C43.622 17.9379 45.7372 21.4505 50.0354 22.5563C52.4417 23.1758 54.8858 23.1701 57.3139 22.6344C58.6649 22.3367 59.4315 22.7643 59.7638 24.1045C60.237 26.0103 59.3318 27.7482 57.3575 28.4068C55.0039 29.1907 52.6147 29.0965 50.2863 28.2436C49.2035 27.8494 48.3384 27.0712 48.1447 25.9183C47.9625 24.8275 47.2887 24.9632 46.5863 24.9988C45.8839 25.0344 45.1402 24.8333 44.4642 25.1206C44.235 25.2183 44.3645 25.5804 44.4023 25.8183C44.7243 27.9103 45.6868 29.6505 47.6233 30.5482C51.7336 32.4528 55.9675 32.5746 60.1259 30.7494C62.6319 29.6482 63.7056 27.3287 63.3939 24.6057C63.1876 22.8045 62.2583 21.5022 60.7584 20.5505C63.7789 17.6919 64.2636 14.5735 62.3626 10.2321C62.9505 10.1551 63.4065 10.0471 63.8637 10.0425C65.4404 10.0229 64.5604 8.83902 64.7323 8.1781ZM57.0882 19.4425C56.0443 19.8413 54.9592 19.954 53.8523 19.9482C53.3469 19.9195 52.8359 19.9275 52.3363 19.8563C48.6019 19.3218 46.7949 16.0022 48.3258 12.5091C48.8357 11.3402 49.7317 10.6103 50.9177 10.2643C52.8726 9.67645 54.9575 9.68365 56.9083 10.285C58.8815 10.8942 59.8383 12.4091 59.8784 14.7965C59.9185 17.1838 58.9984 18.7103 57.0882 19.4379V19.4425Z" fill="#171717"/>
<path d="M149.291 23.7044C148.761 24.1003 148.178 24.418 147.559 24.6481C146.867 24.9035 146.148 25.0786 145.416 25.1699C144.628 25.2779 143.834 25.3336 143.039 25.3366C141.657 25.3494 140.282 25.1375 138.967 24.709C136.494 23.8848 134.969 22.2894 134.439 19.9687C134.353 19.5894 134.306 19.2021 134.547 18.9412C134.724 18.7481 135.012 18.6837 135.424 18.7435C135.587 18.7642 135.751 18.7642 135.914 18.7435C136.841 18.6285 137.747 18.7159 138.055 20.0917C138.259 20.9906 139.166 21.4906 139.688 21.7078C141.865 22.617 144.078 22.6619 146.26 21.84C147.392 21.4136 147.979 20.6136 147.995 19.4619C148.015 18.1147 147.651 17.64 146.382 17.3446C145.247 17.0791 144.062 16.9722 142.915 16.8687C142.132 16.7986 141.323 16.7262 140.529 16.6032C139.567 16.4538 138.541 16.2584 137.55 15.8561C136.036 15.2377 134.999 14.0009 134.704 12.4653C134.408 10.9297 134.916 9.36185 136.104 8.21243C137.492 6.86645 139.23 6.4607 140.589 6.2584C141.112 6.18024 141.637 6.15036 142.06 6.12622C142.221 6.11702 142.367 6.10783 142.491 6.09863H142.521C144.469 6.14806 146.073 6.32852 147.587 7.01817C149.294 7.79978 150.396 9.05955 150.862 10.7596C150.966 11.1412 151.038 11.5641 150.787 11.8481C150.601 12.0527 150.298 12.117 149.857 12.0412C149.726 12.0251 149.594 12.0251 149.464 12.0412C148.623 12.1251 147.685 12.1055 147.226 10.8078C146.997 10.1745 146.404 9.74576 145.288 9.41587C143.586 8.91239 141.775 8.91598 140.074 9.42622C139.57 9.56453 139.104 9.81697 138.712 10.1642C138.113 10.7078 137.899 11.3733 138.059 12.1986C138.181 12.8308 138.586 13.1963 139.411 13.4205C140.522 13.7228 141.691 13.8239 142.823 13.9228C143.432 13.9756 144.062 14.0297 144.681 14.1147C145.746 14.263 146.705 14.4067 147.671 14.6733C149.161 15.086 150.915 15.8515 151.269 18.1216C151.658 20.5871 151.008 22.4113 149.291 23.7044Z" fill="#171717"/>
<path d="M110.854 10.2424C110.434 8.38373 109.27 7.21017 107.395 6.755C106.732 6.59783 106.052 6.52065 105.371 6.52511C104.406 6.52511 103.441 6.52511 102.476 6.52511C100.126 6.52511 97.6944 6.52511 95.3053 6.50098C95.0303 6.50098 94.6888 6.52282 94.4642 6.74695C94.2396 6.97109 94.219 7.32166 94.2236 7.6527C94.2476 9.60672 94.243 11.6021 94.2396 13.5297C94.2396 14.2424 94.2396 14.9554 94.2396 15.6688V22.6504C94.2396 23.7458 94.2396 24.2964 94.5753 24.632C94.8675 24.9228 95.3133 24.9573 96.1337 24.9573H96.5153H96.5955C96.8522 24.9573 97.1684 24.9274 97.3827 24.7125C97.597 24.4975 97.6119 24.1895 97.6119 23.9079C97.5958 23.1401 97.5993 22.3584 97.6027 21.6021C97.6027 20.6883 97.6096 19.7424 97.5809 18.8113C97.5718 18.5171 97.6165 18.4079 97.6543 18.3688C97.7391 18.2826 98.0359 18.2872 98.1344 18.2883C100.912 18.3263 103.405 18.3263 105.764 18.2883C108.729 18.2423 110.47 16.8619 110.937 14.186C111.043 13.5891 111.096 12.9842 111.096 12.378C111.094 11.6593 111.013 10.9431 110.854 10.2424ZM97.7414 15.2642C97.698 15.2669 97.6545 15.2614 97.613 15.2481C97.6062 15.2389 97.5878 15.1964 97.589 15.0182V14.0263C97.5947 12.647 97.5993 11.2274 97.5764 9.82626C97.5764 9.64925 97.6073 9.60672 97.6084 9.60672C97.6096 9.60672 97.668 9.57339 97.9098 9.57799C98.807 9.59063 99.7191 9.58833 100.601 9.58603H101.39V9.60212H101.676C102.044 9.60212 102.413 9.60212 102.781 9.59293C103.583 9.58373 104.421 9.57339 105.235 9.61362C106.93 9.69638 107.677 10.5044 107.732 12.3148C107.732 12.3814 107.732 12.4481 107.732 12.5125C107.732 14.2366 106.982 15.109 105.44 15.186C103.73 15.2745 101.981 15.2676 100.284 15.2607C99.8257 15.2607 99.3593 15.2607 98.8907 15.2607C98.5068 15.2607 98.1207 15.2607 97.7368 15.2607L97.7414 15.2642Z" fill="#171717"/>
<path d="M41.3062 12.7804C40.6107 9.81369 38.7498 7.99071 35.8496 7.22749C33.9945 6.73898 32.1038 6.69645 30.1959 6.89531C25.6422 7.37117 23.0789 9.73209 22.6114 14.2781C22.0385 19.8217 23.8157 24.0206 29.6963 24.8884C30.487 25.0033 31.2902 25.0206 31.9445 25.0723C32.6824 25.0355 33.2726 25.0229 33.8615 24.9735C38.0589 24.6229 40.6737 22.4332 41.4243 18.5677C41.796 16.6522 41.7558 14.6791 41.3062 12.7804ZM37.8182 18.1217C37.1765 20.6712 35.3535 21.8102 32.0889 21.7999C29.9415 21.7712 27.8492 21.462 26.8179 19.2781C25.7076 16.9413 25.7545 14.516 26.9978 12.2091C27.5925 11.1045 28.6639 10.5585 29.8476 10.2712C31.2874 9.91572 32.7903 9.9047 34.2351 10.239C36.0788 10.6643 37.3186 11.7332 37.7987 13.6045C38.1861 15.0843 38.1928 16.6386 37.8182 18.1217Z" fill="#171717"/>
<path d="M83.7446 9.02515C82.8634 8.07572 81.6821 7.55848 80.4434 7.24239C78.1868 6.66136 75.8275 6.60631 73.5464 7.08147C69.8177 7.84929 67.785 9.95503 67.2086 13.701C67.053 14.7891 67.0146 15.8909 67.094 16.9872C67.3885 21.6861 69.7662 24.2539 74.3955 24.924C75.1449 25.0332 75.9092 25.0263 76.5726 25.0677C77.2533 25.0332 77.8457 25.0309 78.4324 24.9665C81.7634 24.601 84.5674 23.3079 85.5631 19.8516C86.67 16.0228 86.7055 12.2194 83.7446 9.02515ZM81.3681 20.078C80.2222 21.6045 78.4415 21.7826 76.3263 21.8022C74.5788 21.7815 72.5025 21.5343 71.4254 19.4493C70.2108 17.101 70.1879 14.5803 71.4999 12.2769C72.7317 10.1137 74.9971 9.93894 77.1891 10.0355C79.2952 10.1274 81.2833 10.7045 82.0774 12.9585C82.9448 15.401 83.0136 17.8907 81.3681 20.078Z" fill="#171717"/>
<path d="M0.760864 0.505604C1.99955 0.505604 3.21302 0.517099 4.42764 0.505604C5.03036 0.497558 5.17131 0.995259 5.41652 1.36193C7.76479 4.8784 10.1062 8.39679 12.4407 11.9171C12.9162 11.8205 13.0033 11.3987 13.2027 11.101C15.3157 7.93549 17.4424 4.77917 19.4969 1.57342C20.0195 0.756179 20.5718 0.398708 21.5366 0.490662C22.4533 0.578018 23.386 0.509052 24.5559 0.509052C24.1411 1.14354 23.8329 1.62055 23.5247 2.09411C20.6737 6.39526 17.819 10.6941 14.9605 14.9907C14.5738 15.5407 14.3756 16.2018 14.3955 16.8746C14.4311 19.1194 14.3829 21.3654 14.423 23.6102C14.4345 24.2999 14.281 24.5458 13.5327 24.5573C10.6543 24.6022 10.4308 24.6102 10.7081 21.7838C11.1195 17.5895 10.0034 14.0826 7.39887 10.7792C5.15526 7.93319 3.34365 4.74469 1.35328 1.69871C1.12525 1.35848 0.789511 1.06882 0.760864 0.505604Z" fill="#171717"/>
</svg>
