<svg xmlns="http://www.w3.org/2000/svg" viewBox="0 0 371.81 124.67"><defs><style>.cls-1,.cls-2{fill:#010101;}.cls-2{stroke:#231f20;stroke-miterlimit:10;stroke-width:0.25px;}.cls-3{fill:#231f20;}</style></defs><g id="Layer_2" data-name="Layer 2"><g id="Layer_1-2" data-name="Layer 1"><path class="cls-1" d="M174.33,43.25a50.55,50.55,0,0,0-2.45-16.6C168.05,14.79,160,7,148.3,3.15a58.87,58.87,0,0,0-37.24,0C90.29,10,83.49,28.74,85.29,49c1.56,17.69,10.1,30.39,27.91,35.44a59.36,59.36,0,0,0,35.13-.65C160.06,80,168.05,72.15,171.88,60.3A52,52,0,0,0,174.33,43.25ZM129.12,71c-17.38-.4-26.87-10.41-26.57-28s10.3-27.44,27.54-27.11,27.3,10.7,27,27.85C156.74,61.39,146.49,71.39,129.12,71Z"/><path class="cls-1" d="M371.8,43.25a50.54,50.54,0,0,0-2.44-16.6C365.52,14.79,357.52,7,345.78,3.15a58.87,58.87,0,0,0-37.24,0C287.77,10,281,28.74,282.76,49c1.57,17.69,10.11,30.39,27.92,35.44a59.33,59.33,0,0,0,35.12-.65C357.54,80,365.53,72.15,369.36,60.3A51.7,51.7,0,0,0,371.8,43.25Zm-17.26.47C354.22,61.39,344,71.39,326.6,71S299.72,60.59,300,43s10.29-27.44,27.53-27.11S354.87,26.57,354.54,43.72Z"/><polygon class="cls-2" points="89.08 0.13 53.2 50.98 53.2 86.75 35.26 86.75 35.26 50.98 0.24 0.13 20.1 0.13 21.94 2.67 22.34 3.25 22.38 3.29 26.85 9.51 44.66 35.82 62.88 8.99 66.46 3.65 66.88 3.03 68.85 0.13 89.08 0.13"/><path class="cls-1" d="M251.24,27.69c-2.14-4.24-8-11.56-23-11.56-21.21,0-26.69,14.32-26.69,27.34s5,27.76,25,27.76c18.08,0,24.54-8.47,25.61-14.88.12-.67.18-.17.18-.79h-25l9-15.38h35.48s8.42,46.43-43.13,46.64c-13.7,0-43.44,0-45.68-43.41C182.93,9.23,208.61.13,229.21.13c18.86,0,32.94,5.34,40,24.75.27.72.52,1.46.76,2.22"/><path class="cls-3" d="M293.39,124.28V102.2h7.37a27.64,27.64,0,0,1,5.46.33,6,6,0,0,1,3.28,2.16,6.73,6.73,0,0,1,1.32,4.3,7.09,7.09,0,0,1-.76,3.42,6.06,6.06,0,0,1-1.94,2.18,6.81,6.81,0,0,1-2.38,1A26.9,26.9,0,0,1,301,116h-3v8.33ZM298,105.94v6.26h2.52a11.87,11.87,0,0,0,3.63-.35,3,3,0,0,0,1.43-1.08,2.87,2.87,0,0,0,.52-1.72,2.77,2.77,0,0,0-.73-2,3.14,3.14,0,0,0-1.84-1,22.88,22.88,0,0,0-3.31-.15Z"/><path class="cls-3" d="M313.66,113.37a13.6,13.6,0,0,1,1-5.66,10.32,10.32,0,0,1,2.12-3,8.66,8.66,0,0,1,2.94-2,12.87,12.87,0,0,1,4.9-.87,10.84,10.84,0,0,1,8,3q3,3,3,8.42t-3,8.36a10.73,10.73,0,0,1-8,3,10.91,10.91,0,0,1-8.07-3Q313.67,118.65,313.66,113.37Zm4.73-.15a8.12,8.12,0,0,0,1.79,5.69,6.27,6.27,0,0,0,9,0Q331,117,331,113.16c0-2.53-.57-4.41-1.72-5.66a6.49,6.49,0,0,0-9.13,0C319,108.79,318.39,110.68,318.39,113.22Z"/><path class="cls-3" d="M338.15,117.09l4.47-.42a5.25,5.25,0,0,0,1.64,3.21,5.06,5.06,0,0,0,3.33,1,5.2,5.2,0,0,0,3.34-.91,2.67,2.67,0,0,0,1.13-2.13,2,2,0,0,0-.48-1.33,3.69,3.69,0,0,0-1.65-1c-.54-.18-1.76-.5-3.68-1a12.66,12.66,0,0,1-5.18-2.18A5.69,5.69,0,0,1,339,108a5.54,5.54,0,0,1,1-3.15,6.18,6.18,0,0,1,2.84-2.24,11.76,11.76,0,0,1,4.48-.76c2.85,0,5,.6,6.45,1.82a6.33,6.33,0,0,1,2.27,4.86l-4.59.2a3.75,3.75,0,0,0-1.27-2.45,4.73,4.73,0,0,0-2.91-.74,5.37,5.37,0,0,0-3.13.79,1.59,1.59,0,0,0-.73,1.37,1.65,1.65,0,0,0,.68,1.34,12.1,12.1,0,0,0,4.22,1.48,22.38,22.38,0,0,1,5,1.59,6.21,6.21,0,0,1,2.51,2.24,6.57,6.57,0,0,1-3.25,9.53,13.14,13.14,0,0,1-4.95.81c-2.88,0-5.08-.65-6.63-1.94A8.33,8.33,0,0,1,338.15,117.09Z"/></g></g></svg>